<svg width="70" height="70" viewBox="0 0 70 70" fill="none" xmlns="http://www.w3.org/2000/svg">
<rect width="70" height="70" rx="12" fill="white"/>
<path d="M49.1663 34.1663C49.1663 33.2823 48.8152 32.4344 48.19 31.8093C47.5649 31.1842 46.7171 30.833 45.833 30.833H24.1663C23.2823 30.833 22.4344 31.1842 21.8093 31.8093C21.1842 32.4344 20.833 33.2823 20.833 34.1663V50.833C20.833 51.7171 21.1842 52.5649 21.8093 53.19C22.4344 53.8152 23.2823 54.1663 24.1663 54.1663H45.833C46.7171 54.1663 47.5649 53.8152 48.19 53.19C48.8152 52.5649 49.1663 51.7171 49.1663 50.833V34.1663Z" fill="#828EFF" fill-opacity="0.2"/>
<path d="M34.9997 30.833H24.1663C23.2823 30.833 22.4344 31.1842 21.8093 31.8093C21.1842 32.4344 20.833 33.2823 20.833 34.1663V50.833C20.833 51.7171 21.1842 52.5649 21.8093 53.19C22.4344 53.8152 23.2823 54.1663 24.1663 54.1663H34.9997V30.833Z" fill="#828EFF" fill-opacity="0.5"/>
<path d="M49.1663 34.1663C49.1663 33.2823 48.8152 32.4344 48.19 31.8093C47.5649 31.1842 46.7171 30.833 45.833 30.833H24.1663C23.2823 30.833 22.4344 31.1842 21.8093 31.8093C21.1842 32.4344 20.833 33.2823 20.833 34.1663V50.833C20.833 51.7171 21.1842 52.5649 21.8093 53.19C22.4344 53.8152 23.2823 54.1663 24.1663 54.1663H45.833C46.7171 54.1663 47.5649 53.8152 48.19 53.19C48.8152 52.5649 49.1663 51.7171 49.1663 50.833V34.1663Z" stroke="#828EFF" stroke-linecap="round" stroke-linejoin="round"/>
<path d="M25.833 24.9997C25.833 22.5685 26.7988 20.2369 28.5179 18.5179C30.2369 16.7988 32.5685 15.833 34.9997 15.833C37.4308 15.833 39.7624 16.7988 41.4815 18.5179C43.2006 20.2369 44.1663 22.5685 44.1663 24.9997V30.833H25.833V24.9997Z" stroke="#828EFF" stroke-linecap="round" stroke-linejoin="round"/>
<path d="M35.0003 44.5837C35.4124 44.5837 35.8152 44.4615 36.1578 44.2326C36.5004 44.0036 36.7674 43.6783 36.9251 43.2976C37.0828 42.9169 37.124 42.498 37.0436 42.0939C36.9632 41.6898 36.7648 41.3185 36.4735 41.0272C36.1821 40.7358 35.8109 40.5374 35.4068 40.457C35.0026 40.3766 34.5837 40.4179 34.2031 40.5756C33.8224 40.7333 33.497 41.0003 33.2681 41.3429C33.0392 41.6855 32.917 42.0883 32.917 42.5003C32.917 43.0529 33.1365 43.5828 33.5272 43.9735C33.9179 44.3642 34.4478 44.5837 35.0003 44.5837Z" fill="#828EFF" fill-opacity="0.2" stroke="#828EFF" stroke-linecap="round" stroke-linejoin="round"/>
</svg>
