<svg width="70" height="70" viewBox="0 0 70 70" fill="none" xmlns="http://www.w3.org/2000/svg">
<rect width="70" height="70" rx="12" fill="#828EFF"/>
<g clip-path="url(#clip0_80_1362)">
<path d="M49.1663 34.1663V17.4997C49.1663 17.0576 48.9907 16.6337 48.6782 16.3212C48.3656 16.0086 47.9417 15.833 47.4997 15.833H17.4997C17.0576 15.833 16.6337 16.0086 16.3212 16.3212C16.0086 16.6337 15.833 17.0576 15.833 17.4997V34.1663H49.1663Z" fill="white" fill-opacity="0.2"/>
<path d="M42.4997 15.833H17.4997C17.0576 15.833 16.6337 16.0086 16.3212 16.3212C16.0086 16.6337 15.833 17.0576 15.833 17.4997V34.1663H24.1663L42.4997 15.833Z" fill="white" fill-opacity="0.5"/>
<path d="M15.833 34.167V37.5003C15.833 37.9424 16.0086 38.3663 16.3212 38.6788C16.6337 38.9914 17.0576 39.167 17.4997 39.167H47.4997C47.9417 39.167 48.3656 38.9914 48.6782 38.6788C48.9907 38.3663 49.1663 37.9424 49.1663 37.5003V34.167H15.833Z" fill="white" fill-opacity="0.2"/>
<path d="M37.5003 44.167C36.8373 44.167 36.2014 43.9036 35.7326 43.4348C35.2637 42.9659 35.0003 42.33 35.0003 41.667V39.167H29.167V41.667C29.167 42.33 28.9036 42.9659 28.4348 43.4348C27.9659 43.9036 27.33 44.167 26.667 44.167H37.5003Z" fill="white" fill-opacity="0.2"/>
<path d="M24.167 44.167H30.8337" stroke="white" stroke-linecap="round" stroke-linejoin="round"/>
<path d="M15.833 34.167H34.1663" stroke="white" stroke-linecap="round" stroke-linejoin="round"/>
<path d="M29.167 39.167V41.667C29.167 42.33 28.9036 42.9659 28.4348 43.4348C27.9659 43.9036 27.33 44.167 26.667 44.167" stroke="white" stroke-linecap="round" stroke-linejoin="round"/>
<path d="M49.1663 30.833V17.4997C49.1663 17.0576 48.9907 16.6337 48.6782 16.3212C48.3656 16.0086 47.9417 15.833 47.4997 15.833H17.4997C17.0576 15.833 16.6337 16.0086 16.3212 16.3212C16.0086 16.6337 15.833 17.0576 15.833 17.4997V37.4997C15.833 37.9417 16.0086 38.3656 16.3212 38.6782C16.6337 38.9907 17.0576 39.1663 17.4997 39.1663H30.833" stroke="white" stroke-linecap="round" stroke-linejoin="round"/>
<path d="M34.167 44.167C34.167 46.8192 35.2206 49.3627 37.0959 51.2381C38.9713 53.1134 41.5148 54.167 44.167 54.167C46.8192 54.167 49.3627 53.1134 51.2381 51.2381C53.1134 49.3627 54.167 46.8192 54.167 44.167C54.167 41.5148 53.1134 38.9713 51.2381 37.0959C49.3627 35.2206 46.8192 34.167 44.167 34.167C41.5148 34.167 38.9713 35.2206 37.0959 37.0959C35.2206 38.9713 34.167 41.5148 34.167 44.167Z" fill="white" fill-opacity="0.5"/>
<path d="M37.0952 51.2385C35.2197 49.363 34.166 46.8193 34.166 44.1669C34.166 41.5145 35.2197 38.9707 37.0952 37.0952C38.9707 35.2197 41.5145 34.166 44.1669 34.166C46.8193 34.166 49.363 35.2197 51.2385 37.0952L37.0952 51.2385Z" fill="#CDD2FF"/>
<path d="M34.167 44.167C34.167 46.8192 35.2206 49.3627 37.0959 51.2381C38.9713 53.1134 41.5148 54.167 44.167 54.167C46.8192 54.167 49.3627 53.1134 51.2381 51.2381C53.1134 49.3627 54.167 46.8192 54.167 44.167C54.167 41.5148 53.1134 38.9713 51.2381 37.0959C49.3627 35.2206 46.8192 34.167 44.167 34.167C41.5148 34.167 38.9713 35.2206 37.0959 37.0959C35.2206 38.9713 34.167 41.5148 34.167 44.167Z" stroke="white" stroke-linecap="round" stroke-linejoin="round"/>
<path d="M47.5003 44.167H44.167V39.167" stroke="white" stroke-linecap="round" stroke-linejoin="round"/>
</g>
<defs>
<clipPath id="clip0_80_1362">
<rect width="40" height="40" fill="white" transform="translate(15 15)"/>
</clipPath>
</defs>
</svg>
