<svg width="70" height="70" viewBox="0 0 70 70" fill="none" xmlns="http://www.w3.org/2000/svg">
<rect width="70" height="70" rx="12" fill="#828EFF"/>
<g clip-path="url(#clip0_80_1347)">
<path d="M54.1481 34.1863C53.9887 30.4335 52.7301 26.8102 50.5287 23.7667C48.3273 20.7232 45.2802 18.3936 41.7659 17.0674C38.2516 15.7412 34.425 15.4768 30.7617 16.3072C27.0985 17.1375 23.7599 19.026 21.1609 21.7379C18.5619 24.4497 16.817 27.8655 16.1431 31.5608C15.4691 35.2561 15.8958 39.0679 17.3702 42.5227C18.8445 45.9775 21.3015 48.9229 24.4358 50.993C27.5701 53.0631 31.2436 54.1666 34.9998 54.1663C35.2848 54.1663 35.5698 54.1663 35.8514 54.1463" fill="white" fill-opacity="0.2"/>
<path d="M35.0002 15.833C31.3054 15.8289 27.6884 16.894 24.5855 18.8999C21.4827 20.9057 19.0265 23.7665 17.5133 27.1371C16.0001 30.5078 15.4945 34.2443 16.0577 37.8959C16.6208 41.5475 18.2285 44.9581 20.6868 47.7164L47.7168 20.6864C44.2193 17.5594 39.6918 15.8314 35.0002 15.833Z" fill="white" fill-opacity="0.44"/>
<path d="M54.1481 34.1863C53.9887 30.4335 52.7301 26.8102 50.5287 23.7667C48.3273 20.7232 45.2802 18.3936 41.7659 17.0674C38.2516 15.7412 34.425 15.4768 30.7617 16.3072C27.0985 17.1375 23.7599 19.026 21.1609 21.7379C18.5619 24.4497 16.817 27.8655 16.1431 31.5608C15.4691 35.2561 15.8958 39.0679 17.3702 42.5227C18.8445 45.9775 21.3015 48.9229 24.4358 50.993C27.5701 53.0631 31.2436 54.1666 34.9998 54.1663C35.2848 54.1663 35.5698 54.1663 35.8514 54.1463" stroke="white" stroke-linecap="round" stroke-linejoin="round"/>
<path d="M27.9167 30C27.9991 30 28.0796 30.0244 28.1482 30.0702C28.2167 30.116 28.2701 30.1811 28.3016 30.2572C28.3332 30.3334 28.3414 30.4171 28.3253 30.498C28.3093 30.5788 28.2696 30.653 28.2113 30.7113C28.153 30.7696 28.0788 30.8093 27.998 30.8253C27.9171 30.8414 27.8334 30.8332 27.7572 30.8016C27.6811 30.7701 27.616 30.7167 27.5702 30.6482C27.5244 30.5796 27.5 30.4991 27.5 30.4167C27.5 30.3062 27.5439 30.2002 27.622 30.122C27.7002 30.0439 27.8062 30 27.9167 30Z" stroke="white" stroke-linecap="round" stroke-linejoin="round"/>
<path d="M23.9482 40.833C25.1341 43.0774 26.9746 44.9081 29.2254 46.0818C31.4762 47.2556 34.0307 47.717 36.5499 47.4047" stroke="white" stroke-linecap="round" stroke-linejoin="round"/>
<path d="M39.167 31.0137C39.5205 30.4486 40.0119 29.9826 40.595 29.6595C41.1781 29.3365 41.8337 29.167 42.5003 29.167C43.1669 29.167 43.8226 29.3365 44.4057 29.6595C44.9888 29.9826 45.4802 30.4486 45.8337 31.0137" stroke="white" stroke-linecap="round" stroke-linejoin="round"/>
<path d="M54.1482 34.1865L35.8516 54.1465" stroke="white" stroke-linecap="round" stroke-linejoin="round"/>
<path d="M35.833 54.167V52.5003C35.833 47.638 37.7646 42.9749 41.2027 39.5367C44.6409 36.0985 49.304 34.167 54.1663 34.167L35.833 54.167Z" fill="white"/>
<path d="M35.833 54.167V52.5003C35.833 47.638 37.7646 42.9749 41.2027 39.5367C44.6409 36.0985 49.304 34.167 54.1663 34.167L35.833 54.167Z" stroke="white" stroke-linecap="round" stroke-linejoin="round"/>
</g>
<defs>
<clipPath id="clip0_80_1347">
<rect width="40" height="40" fill="white" transform="translate(15 15)"/>
</clipPath>
</defs>
</svg>
