<svg width="70" height="70" viewBox="0 0 70 70" fill="none" xmlns="http://www.w3.org/2000/svg">
<rect width="70" height="70" rx="12" fill="white"/>
<g clip-path="url(#clip0_80_1318)">
<path d="M35.0001 15.833C31.3127 15.8329 27.7036 16.8965 24.6055 18.8962C21.5074 20.8959 19.052 23.7468 17.5335 27.107C16.0151 30.4672 15.4982 34.1941 16.0448 37.8407C16.5913 41.4874 18.1782 44.899 20.6151 47.6663C24.8385 44.7522 29.8698 43.2366 35.0001 43.333C40.1304 43.2366 45.1617 44.7522 49.3851 47.6663C51.822 44.899 53.4088 41.4874 53.9554 37.8407C54.502 34.1941 53.9851 30.4672 52.4666 27.107C50.9482 23.7468 48.4927 20.8959 45.3947 18.8962C42.2966 16.8965 38.6875 15.8329 35.0001 15.833Z" fill="#828EFF" fill-opacity="0.2"/>
<path d="M34.9997 22.333C39.3624 22.3333 43.6014 23.7835 47.0501 26.4556C50.4987 29.1277 52.9616 32.8702 54.0513 37.0947C54.1273 36.3989 54.1657 35.6996 54.1663 34.9997C54.1663 29.9164 52.147 25.0412 48.5526 21.4468C44.9581 17.8523 40.083 15.833 34.9997 15.833C29.9164 15.833 25.0412 17.8523 21.4468 21.4468C17.8523 25.0412 15.833 29.9164 15.833 34.9997C15.8334 35.7018 15.8718 36.4034 15.948 37.1013C17.0365 32.8756 19.4988 29.1317 22.9476 26.4582C26.3964 23.7848 30.636 22.3337 34.9997 22.333Z" fill="#828EFF" fill-opacity="0.5"/>
<path d="M20.6152 47.6668C22.4129 49.7112 24.6257 51.349 27.1062 52.471C29.5867 53.5929 32.2778 54.1732 35.0002 54.1732C37.7226 54.1732 40.4138 53.5929 42.8943 52.471C45.3747 51.349 47.5876 49.7112 49.3852 47.6668C45.1618 44.7527 40.1305 43.237 35.0002 43.3334C29.8699 43.237 24.8387 44.7527 20.6152 47.6668Z" fill="#828EFF" fill-opacity="0.1"/>
<path d="M22.7052 49.6984C30.8009 47.8784 39.1996 47.8784 47.2952 49.6984C48.0417 49.0744 48.7403 48.3953 49.3852 47.6668C45.1618 44.7527 40.1305 43.237 35.0002 43.3334C29.8699 43.237 24.8387 44.7527 20.6152 47.6668C21.2602 48.3953 21.9588 49.0744 22.7052 49.6984Z" fill="#828EFF" fill-opacity="0.1"/>
<path d="M35.0001 15.833C31.3127 15.8329 27.7036 16.8965 24.6055 18.8962C21.5074 20.8959 19.052 23.7468 17.5335 27.107C16.0151 30.4672 15.4982 34.1941 16.0448 37.8407C16.5913 41.4874 18.1782 44.899 20.6151 47.6663C24.8385 44.7522 29.8698 43.2366 35.0001 43.333C40.1304 43.2366 45.1617 44.7522 49.3851 47.6663C51.822 44.899 53.4088 41.4874 53.9554 37.8407C54.502 34.1941 53.9851 30.4672 52.4666 27.107C50.9482 23.7468 48.4927 20.8959 45.3947 18.8962C42.2966 16.8965 38.6875 15.8329 35.0001 15.833Z" stroke="#828EFF" stroke-linecap="round" stroke-linejoin="round"/>
<path d="M20.6152 47.6668C22.4129 49.7112 24.6257 51.349 27.1062 52.471C29.5867 53.5929 32.2778 54.1732 35.0002 54.1732C37.7226 54.1732 40.4138 53.5929 42.8943 52.471C45.3747 51.349 47.5876 49.7112 49.3852 47.6668C45.1618 44.7527 40.1305 43.237 35.0002 43.3334C29.8699 43.237 24.8387 44.7527 20.6152 47.6668Z" stroke="#828EFF" stroke-linecap="round" stroke-linejoin="round"/>
<path d="M37.357 37.3562C36.7284 37.9634 35.8864 38.2994 35.0124 38.2918C34.1384 38.2842 33.3023 37.9337 32.6843 37.3156C32.0663 36.6976 31.7157 35.8616 31.7081 34.9876C31.7005 34.1136 32.0365 33.2716 32.6437 32.6429C33.9454 31.3412 46.197 23.8096 46.197 23.8096C46.197 23.8096 38.667 36.0546 37.357 37.3562Z" fill="#828EFF" fill-opacity="0.5" stroke="#828EFF" stroke-linecap="round" stroke-linejoin="round"/>
<path d="M20.833 35H23.333" stroke="#828EFF" stroke-linecap="round" stroke-linejoin="round"/>
<path d="M24.9834 24.9834L26.7501 26.7501" stroke="#828EFF" stroke-linecap="round" stroke-linejoin="round"/>
<path d="M35 20.833V23.333" stroke="#828EFF" stroke-linecap="round" stroke-linejoin="round"/>
<path d="M49.167 35H46.667" stroke="#828EFF" stroke-linecap="round" stroke-linejoin="round"/>
</g>
<defs>
<clipPath id="clip0_80_1318">
<rect width="40" height="40" fill="white" transform="translate(15 15)"/>
</clipPath>
</defs>
</svg>
