<svg width="48" height="48" viewBox="0 0 48 48" fill="none" xmlns="http://www.w3.org/2000/svg">
<rect width="48" height="48" rx="12" fill="#828EFF"/>
<path d="M17.23 34.4233L27.7983 24.4767L32.7717 29.45M17.23 34.4233H29.6633C31.7233 34.4233 33.3933 32.7534 33.3933 30.6933V24.4767M17.23 34.4233C15.17 34.4233 13.5 32.7534 13.5 30.6933V18.26C13.5 16.2 15.17 14.53 17.23 14.53H25.3117M32.15 20.5334L32.15 17.0167M32.15 17.0167L32.15 13.5M32.15 17.0167L28.6333 17.0167M32.15 17.0167L35.6667 17.0167M20.96 20.125C20.96 21.155 20.125 21.99 19.095 21.99C18.065 21.99 17.23 21.155 17.23 20.125C17.23 19.095 18.065 18.26 19.095 18.26C20.125 18.26 20.96 19.095 20.96 20.125Z" stroke="white" stroke-width="2" stroke-linecap="round" stroke-linejoin="round"/>
</svg>
