<svg width="48" height="48" viewBox="0 0 48 48" fill="none" xmlns="http://www.w3.org/2000/svg">
<rect width="48" height="48" rx="12" fill="#828EFF"/>
<path d="M36.1988 24.7001C36.1988 24.1478 35.7511 23.7001 35.1988 23.7001C34.6465 23.7001 34.1988 24.1478 34.1988 24.7001H35.1988H36.1988ZM34.2474 29.2244L33.3328 28.82C33.2571 28.9913 33.231 29.1804 33.2575 29.3658L34.2474 29.2244ZM29.4809 34.469L29.7234 33.4989C29.4756 33.4369 29.2134 33.4722 28.9907 33.5974L29.4809 34.469ZM35.201 35.899L34.9584 36.8692C35.2814 36.9499 35.6234 36.8646 35.8707 36.6416C36.1179 36.4186 36.238 36.0872 36.1909 35.7576L35.201 35.899ZM22.0852 14.6791C22.6278 14.5762 22.9842 14.0529 22.8813 13.5103C22.7784 12.9677 22.2551 12.6112 21.7125 12.7142L21.8988 13.6967L22.0852 14.6791ZM35.1988 24.7001H34.1988C34.1988 26.1682 33.8893 27.5614 33.3328 28.82L34.2474 29.2244L35.162 29.6287C35.8289 28.1202 36.1988 26.452 36.1988 24.7001H35.1988ZM23.9988 35.9001V34.9001C18.3655 34.9001 13.7988 30.3334 13.7988 24.7001H12.7988H11.7988C11.7988 31.438 17.261 36.9001 23.9988 36.9001V35.9001ZM29.4809 34.469L28.9907 33.5974C27.516 34.4267 25.8142 34.9001 23.9988 34.9001V35.9001V36.9001C26.1664 36.9001 28.2048 36.3339 29.9711 35.3406L29.4809 34.469ZM35.201 35.899L35.4435 34.9289L29.7234 33.4989L29.4809 34.469L29.2383 35.4392L34.9584 36.8692L35.201 35.899ZM34.2474 29.2244L33.2575 29.3658L34.211 36.0405L35.201 35.899L36.1909 35.7576L35.2374 29.083L34.2474 29.2244ZM12.7988 24.7001H13.7988C13.7988 19.7216 17.3666 15.5742 22.0852 14.6791L21.8988 13.6967L21.7125 12.7142C16.0674 13.785 11.7988 18.743 11.7988 24.7001H12.7988ZM35.1988 16.3001H34.1988C34.1988 18.0674 32.7661 19.5001 30.9988 19.5001V20.5001V21.5001C33.8707 21.5001 36.1988 19.172 36.1988 16.3001H35.1988ZM30.9988 20.5001V19.5001C29.2315 19.5001 27.7988 18.0674 27.7988 16.3001H26.7988H25.7988C25.7988 19.172 28.1269 21.5001 30.9988 21.5001V20.5001ZM26.7988 16.3001H27.7988C27.7988 14.5328 29.2315 13.1001 30.9988 13.1001V12.1001V11.1001C28.1269 11.1001 25.7988 13.4282 25.7988 16.3001H26.7988ZM30.9988 12.1001V13.1001C32.7661 13.1001 34.1988 14.5328 34.1988 16.3001H35.1988H36.1988C36.1988 13.4282 33.8707 11.1001 30.9988 11.1001V12.1001Z" fill="white"/>
</svg>
