<svg width="48" height="48" viewBox="0 0 48 48" fill="none" xmlns="http://www.w3.org/2000/svg">
<rect width="48" height="48" rx="12" fill="#828EFF"/>
<path d="M15.8331 22.8333C15.8331 17.6787 20.0115 13.5 25.1657 13.5C30.3199 13.5 34.4982 17.6787 34.4982 22.8333C34.4982 24.175 34.2151 25.4506 33.7055 26.6036L34.5 32.1658L29.7337 30.9741C28.3834 31.7335 26.8251 32.1667 25.1657 32.1667M13.5011 28.6667C13.5011 29.5052 13.678 30.3025 13.9965 31.0231L13.5 34.4994L16.4787 33.7546C17.3225 34.2293 18.2963 34.5 19.3334 34.5C22.5545 34.5 25.1657 31.8883 25.1657 28.6667C25.1657 25.445 22.5545 22.8333 19.3334 22.8333C16.1123 22.8333 13.5011 25.445 13.5011 28.6667Z" stroke="white" stroke-width="2" stroke-linecap="round" stroke-linejoin="round"/>
</svg>
