<svg width="48" height="48" viewBox="0 0 48 48" fill="none" xmlns="http://www.w3.org/2000/svg">
<rect width="48" height="48" rx="12" fill="#828EFF"/>
<path d="M12.8 31.253C14.0818 29.115 16.891 27.6518 21.2737 27.6518C25.6564 27.6518 28.4656 29.115 29.7473 31.253M30.5582 26.0307C32.8791 27.1911 34.0396 28.3516 35.2 30.6725M28.1443 17.1605C29.2364 17.748 29.9788 18.9016 29.9788 20.2285C29.9788 21.5171 29.2787 22.6422 28.2381 23.2442M24.7551 20.2285C24.7551 22.1512 23.1964 23.7099 21.2737 23.7099C19.351 23.7099 17.7923 22.1512 17.7923 20.2285C17.7923 18.3058 19.351 16.7471 21.2737 16.7471C23.1964 16.7471 24.7551 18.3058 24.7551 20.2285Z" stroke="white" stroke-width="2" stroke-linecap="round"/>
</svg>
