<svg width="48" height="48" viewBox="0 0 48 48" fill="none" xmlns="http://www.w3.org/2000/svg">
<rect width="48" height="48" rx="12" fill="#828EFF"/>
<path d="M11.7998 35.1997C11.7997 35.752 12.2474 36.1997 12.7997 36.1998C13.352 36.1999 13.7997 35.7522 13.7998 35.1999L12.7998 35.1998L11.7998 35.1997ZM12.8003 30.9993L13.8003 30.9994L12.8003 30.9993ZM24.6998 27.7998C25.2521 27.7998 25.6998 27.3521 25.6998 26.7998C25.6998 26.2475 25.2521 25.7998 24.6998 25.7998V26.7998V27.7998ZM35.1998 29.1998C35.7521 29.1998 36.1998 28.7521 36.1998 28.1998C36.1998 27.6475 35.7521 27.1998 35.1998 27.1998V28.1998V29.1998ZM28.8998 27.1998C28.3475 27.1998 27.8998 27.6475 27.8998 28.1998C27.8998 28.7521 28.3475 29.1998 28.8998 29.1998V28.1998V27.1998ZM31.0498 31.3496C31.0498 31.9019 31.4975 32.3496 32.0498 32.3496C32.6021 32.3496 33.0498 31.9019 33.0498 31.3496H32.0498H31.0498ZM33.0498 25.0496C33.0498 24.4974 32.6021 24.0496 32.0498 24.0496C31.4975 24.0496 31.0498 24.4974 31.0498 25.0496H32.0498H33.0498ZM30.7888 11.9275C30.307 11.6575 29.6975 11.8291 29.4275 12.3108C29.1575 12.7926 29.3291 13.4021 29.8108 13.6721L30.2998 12.7998L30.7888 11.9275ZM29.8108 20.3275C29.3291 20.5975 29.1575 21.207 29.4275 21.6888C29.6975 22.1705 30.307 22.3422 30.7888 22.0721L30.2998 21.1998L29.8108 20.3275ZM26.7998 16.9998H25.7998C25.7998 18.7671 24.3671 20.1998 22.5998 20.1998V21.1998V22.1998C25.4717 22.1998 27.7998 19.8717 27.7998 16.9998H26.7998ZM22.5998 21.1998V20.1998C20.8325 20.1998 19.3998 18.7671 19.3998 16.9998H18.3998H17.3998C17.3998 19.8717 19.7279 22.1998 22.5998 22.1998V21.1998ZM18.3998 16.9998H19.3998C19.3998 15.2325 20.8325 13.7998 22.5998 13.7998V12.7998V11.7998C19.7279 11.7998 17.3998 14.1279 17.3998 16.9998H18.3998ZM22.5998 12.7998V13.7998C24.3671 13.7998 25.7998 15.2325 25.7998 16.9998H26.7998H27.7998C27.7998 14.1279 25.4717 11.7998 22.5998 11.7998V12.7998ZM12.7998 35.1998L13.7998 35.1999L13.8003 30.9994L12.8003 30.9993L11.8003 30.9992L11.7998 35.1997L12.7998 35.1998ZM17.0003 26.7998V25.7998C14.1286 25.7998 11.8006 28.1276 11.8003 30.9992L12.8003 30.9993L13.8003 30.9994C13.8005 29.2323 15.2331 27.7998 17.0003 27.7998V26.7998ZM17.0003 26.7998V27.7998H24.6998V26.7998V25.7998H17.0003V26.7998ZM35.1998 28.1998V27.1998H32.0498V28.1998V29.1998H35.1998V28.1998ZM32.0498 28.1998V27.1998H28.8998V28.1998V29.1998H32.0498V28.1998ZM32.0498 31.3496H33.0498V28.1998H32.0498H31.0498V31.3496H32.0498ZM32.0498 28.1998H33.0498V25.0496H32.0498H31.0498V28.1998H32.0498ZM30.2998 12.7998L29.8108 13.6721C31.2912 14.5019 32.0998 15.7396 32.0998 16.9998H33.0998H34.0998C34.0998 14.8181 32.7063 13.0024 30.7888 11.9275L30.2998 12.7998ZM33.0998 16.9998H32.0998C32.0998 18.26 31.2912 19.4977 29.8108 20.3275L30.2998 21.1998L30.7888 22.0721C32.7063 20.9972 34.0998 19.1816 34.0998 16.9998H33.0998Z" fill="white"/>
</svg>
