<svg width="48" height="48" viewBox="0 0 48 48" fill="none" xmlns="http://www.w3.org/2000/svg">
<rect width="48" height="48" rx="12" fill="#828EFF"/>
<path d="M22.948 14.4378H16.3138C14.1154 14.4378 12.3333 16.2199 12.3333 18.4182V31.6864C12.3333 33.8847 14.1154 35.6668 16.3138 35.6668H29.5823C31.7807 35.6668 33.5628 33.8847 33.5628 31.6864L33.5628 25.0523M18.9675 29.0327L23.795 28.06C24.0513 28.0084 24.2866 27.8822 24.4714 27.6973L35.2782 16.8849C35.7964 16.3665 35.796 15.5262 35.2774 15.0082L32.9882 12.7216C32.4698 12.2038 31.6299 12.2042 31.112 12.7224L20.304 23.5359C20.1196 23.7204 19.9936 23.9553 19.942 24.211L18.9675 29.0327Z" stroke="white" stroke-width="2" stroke-linecap="round" stroke-linejoin="round"/>
</svg>
