<svg width="370" height="180" viewBox="0 0 370 180" fill="none" xmlns="http://www.w3.org/2000/svg">
<path d="M0 49.9964C1.27317 47.8853 2.30701 46.3141 4.93089 45.7635C8.15301 45.086 11.3951 44.5159 14.6229 43.8593L37.3574 39.1739L124.83 21.1448L274.784 -9.7724L337.393 -22.6934C345.587 -24.369 353.763 -26.206 361.985 -27.7666C366.602 -28.6429 367.823 -27.0126 370 -23.5368V-20.1968C367.758 -15.2557 365.663 -8.7122 363.716 -3.52654L348.807 36.8582L304.959 155.413L290.104 195.629L285.918 206.968C284.292 211.431 281.965 220.68 274.957 217.256C271.577 215.604 268.132 212.942 264.932 210.832L247.476 199.512L218.609 180.803L207.105 173.36C205.903 172.566 203.787 171.348 202.767 170.536C198.217 173.824 192.712 177.309 188.003 180.44L161.926 197.779L142.915 210.406C139.768 212.5 136.722 214.56 133.482 216.669C129.767 219.088 124.874 217.624 123.904 213.153C123.44 211.01 123.258 208.605 122.853 206.384C121.049 196.915 119.333 187.429 117.706 177.928C115.024 163.546 112.42 149.149 109.894 134.74C108.714 127.888 107.338 121.05 106.124 114.201C105.95 113.222 105.805 112.505 105.824 111.496C104.157 110.358 100.871 108.834 98.9403 107.832L85.9433 101.036L27.8124 70.2986L12.9633 62.5061C8.66942 60.3057 2.606 58.0275 0 53.9539V49.9964ZM274.554 202.336C275.042 199.759 276.827 195.517 277.828 192.854L282.866 179.255L298.349 137.337L333.759 41.4788C339.287 26.2058 344.938 10.9767 350.711 -4.20619C346.695 -1.64904 342.943 1.22379 339.121 4.04618L328.069 12.1486L301.068 31.9694L210.437 98.3523C201.293 105.135 192.114 111.87 182.9 118.557C177.218 122.746 171.27 127.339 165.404 131.231C165.663 131.775 165.753 131.69 166.364 132.078C166.682 132.28 167 132.5 167 132.5C167 132.5 167 132.5 167.146 132.646C167.373 132.873 167.68 133 168 133C168 133 168.454 133.399 168.437 133.386C171.983 136.014 176.867 138.958 180.637 141.35L196.493 151.598L248.084 185.151L263.278 194.997C267.107 197.45 270.811 199.712 274.554 202.336ZM24.1473 54.3114C30.4322 57.8502 37.7707 61.4459 44.214 64.8463L89.5205 88.8106C96.6177 92.5447 104.307 96.3574 111.293 100.18C112.987 99.0817 116.228 97.5386 118.096 96.601L129.845 90.7176C131.867 89.705 134.168 88.6585 136.124 87.5558C145.936 82.0249 156.261 77.4144 166.221 72.1761C216.318 46.2716 266.548 20.623 316.909 -4.76764L318.833 -5.76298L318.613 -6.07589L318.594 -6.10316C318.991 -6.15721 318.924 -6.20911 319.257 -6.09667C319.126 -6.12934 318.894 -6.11598 318.613 -6.07589C317.833 -5.96474 316.669 -5.64809 316.2 -5.53738C313.303 -5.15612 310 -4.2307 307.087 -3.72763C306.255 -3.5842 304.338 -3.11933 303.596 -3.0696C302.834 -3.32546 300.89 -3.85592 300.442 -2.94204L301.035 -2.55284L78.6069 43.2784L37.0733 51.8558C34.3869 52.4014 26.2359 54.4966 24.1473 54.3114ZM298.096 18.646C296.581 19.3984 295.355 20.0421 293.898 20.8961C291.457 21.8518 287.196 24.4969 284.526 25.8367L255.571 40.6463L168.125 85.3388L136.505 101.498C133.528 103.008 119.529 109.522 118.178 110.953C118.344 113.037 119.065 116.398 119.47 118.53C120.215 122.494 120.938 126.463 121.638 130.436C123.654 141.936 125.729 153.425 127.865 164.903C128.324 167.398 130.663 181.69 131.446 182.921L131.708 183.084C132.511 182.403 144.056 143.164 145.607 138.888C149.778 127.388 145.333 130.679 156.728 122.21L180.004 105.164L259.332 46.9239L285.249 27.9117C288.053 25.867 291.853 23.4273 294.472 21.3963C295.234 21.0244 297.557 19.2896 298.096 18.646ZM158.106 141.9L157.522 143.271C156.096 146.61 153.786 155.03 152.624 158.928L145.358 182.816C144.262 186.537 142.349 193.748 140.794 196.93C147.733 192.362 154.559 187.509 161.608 182.934C170.212 176.951 179.227 171.37 187.888 165.453C189.05 164.659 190.343 163.861 191.55 163.129C187.258 160.844 159.576 142.076 158.106 141.9Z" fill="url(#paint0_radial_227_2376)" fill-opacity="0.28"/>
<path d="M24.1473 54.3114C30.4322 57.8502 37.7707 61.4459 44.214 64.8463L89.5205 88.8106C96.6177 92.5447 104.307 96.3574 111.293 100.18C112.987 99.0817 116.228 97.5386 118.096 96.601L129.845 90.7176C131.867 89.705 134.168 88.6585 136.124 87.5558C145.936 82.0249 156.261 77.4144 166.221 72.1761C216.318 46.2716 266.548 20.623 316.909 -4.76764L318.833 -5.76298L318.613 -6.07589C317.833 -5.96474 316.669 -5.64809 316.2 -5.53738C313.303 -5.15612 310 -4.2307 307.087 -3.72763C306.255 -3.5842 304.338 -3.11933 303.596 -3.0696C302.834 -3.32546 300.89 -3.85592 300.442 -2.94204L301.035 -2.55284L78.6069 43.2784L37.0733 51.8558C34.3869 52.4014 26.2359 54.4966 24.1473 54.3114Z" fill="white" fill-opacity="0.1"/>
<path d="M274.554 202.336C275.042 199.759 276.827 195.517 277.828 192.854L282.866 179.255L298.349 137.337L333.759 41.4788C339.287 26.2058 344.938 10.9767 350.711 -4.20619C346.695 -1.64904 342.943 1.22379 339.121 4.04618L328.069 12.1486L301.068 31.9694L210.437 98.3523C201.293 105.135 192.114 111.87 182.9 118.557C177.218 122.746 171.27 127.339 165.404 131.231C165.663 131.775 165.753 131.69 166.364 132.078C166.682 132.28 167 132.5 167 132.5C167 132.5 167 132.5 167.146 132.646C167.373 132.873 167.68 133 168 133C168 133 168.454 133.399 168.437 133.386C171.983 136.014 176.867 138.958 180.637 141.35L196.493 151.598L248.084 185.151L263.278 194.997C267.107 197.45 270.811 199.712 274.554 202.336Z" fill="white" fill-opacity="0.1"/>
<path d="M158.106 141.9L157.522 143.271C156.096 146.61 153.786 155.03 152.624 158.928L145.358 182.816C144.262 186.537 142.349 193.748 140.794 196.93C147.733 192.362 154.559 187.509 161.608 182.934C170.212 176.951 179.227 171.37 187.888 165.453C189.05 164.659 190.343 163.861 191.55 163.129C187.258 160.844 159.576 142.076 158.106 141.9Z" fill="white" fill-opacity="0.1"/>
<path d="M298.096 18.646C296.581 19.3984 295.355 20.0421 293.898 20.8961C291.457 21.8518 287.196 24.4969 284.526 25.8367L255.571 40.6463L168.125 85.3388L136.505 101.498C133.528 103.008 119.529 109.522 118.178 110.953C118.344 113.037 119.065 116.398 119.47 118.53C120.215 122.494 120.938 126.463 121.638 130.436C123.654 141.936 125.729 153.425 127.865 164.903C128.324 167.398 130.663 181.69 131.446 182.921L131.708 183.084C132.511 182.403 144.056 143.164 145.607 138.888C149.778 127.388 145.333 130.679 156.728 122.21L180.004 105.164L259.332 46.9239L285.249 27.9117C288.053 25.867 291.853 23.4273 294.472 21.3963C295.234 21.0244 297.557 19.2896 298.096 18.646Z" fill="white" fill-opacity="0.1"/>
<defs>
<radialGradient id="paint0_radial_227_2376" cx="0" cy="0" r="1" gradientUnits="userSpaceOnUse" gradientTransform="translate(185 95) rotate(90) scale(123 185)">
<stop stop-color="white"/>
<stop offset="1" stop-color="white" stop-opacity="0"/>
</radialGradient>
</defs>
</svg>
