<svg width="52" height="52" viewBox="0 0 52 52" fill="none" xmlns="http://www.w3.org/2000/svg">
<rect x="1" y="1" width="50" height="50" rx="13" fill="#DADADA"/>
<rect x="1" y="1" width="50" height="50" rx="13" stroke="url(#paint0_linear_80_1171)" stroke-width="2"/>
<g clip-path="url(#clip0_80_1171)">
<path d="M6 24.72C6 15.8953 6 11.483 8.74148 8.74148C11.483 6 15.8953 6 24.72 6H26.28C35.1047 6 39.517 6 42.2585 8.74148C45 11.483 45 15.8953 45 24.72V26.28C45 35.1047 45 39.517 42.2585 42.2585C39.517 45 35.1047 45 26.28 45H24.72C15.8953 45 11.483 45 8.74148 42.2585C6 39.517 6 35.1047 6 26.28V24.72Z" fill="#DADADA"/>
<path d="M26.7513 34.097C17.8625 34.097 12.7926 28.0033 12.5813 17.8633H17.0338C17.1801 25.3058 20.4625 28.4583 23.0625 29.1083V17.8633H27.2551V24.282C29.8226 24.0057 32.5198 21.0808 33.4298 17.8633H37.6224C36.9237 21.8283 33.9987 24.7533 31.9187 25.9557C33.9987 26.9307 37.3301 29.482 38.5976 34.097H33.9824C32.9912 31.0095 30.5214 28.6208 27.2551 28.2957V34.097H26.7513Z" fill="white"/>
</g>
<defs>
<linearGradient id="paint0_linear_80_1171" x1="26" y1="2" x2="26" y2="50" gradientUnits="userSpaceOnUse">
<stop stop-color="#4B93FE"/>
<stop offset="1" stop-color="#519BFE"/>
</linearGradient>
<clipPath id="clip0_80_1171">
<rect width="39" height="39" fill="white" transform="translate(6 6)"/>
</clipPath>
</defs>
</svg>
