<svg width="52" height="52" viewBox="0 0 52 52" fill="none" xmlns="http://www.w3.org/2000/svg">
<rect x="1" y="1" width="50" height="50" rx="13" fill="#DADADA"/>
<rect x="1" y="1" width="50" height="50" rx="13" stroke="#4A91FE" stroke-width="2"/>
<path d="M21.5491 15.5665C21.8488 14.78 22.2608 14.0559 22.8725 13.4691C25.3195 11.0845 29.3645 11.6838 31.025 14.6801C32.2734 16.9523 33.5968 19.1745 34.8827 21.4218C37.0301 25.1547 39.2024 28.8876 41.3248 32.633C43.1101 35.7666 41.175 39.7242 37.6293 40.2611C35.457 40.5857 33.422 39.5869 32.2984 37.6393C30.4132 34.3558 28.5155 31.0724 26.6304 27.8014C26.5929 27.7265 26.543 27.6641 26.493 27.6017C26.2933 27.4394 26.2059 27.2022 26.081 26.9899C25.2446 25.5167 24.3831 24.056 23.5467 22.5953C23.0098 21.6465 22.448 20.7102 21.9112 19.7613C21.4243 18.9124 21.1996 17.9885 21.2245 17.0147C21.262 16.5153 21.3244 16.0159 21.5491 15.5665Z" fill="white"/>
<path d="M21.5493 15.5664C21.437 16.0159 21.3371 16.4653 21.3121 16.9397C21.2747 17.9884 21.5368 18.9622 22.0612 19.8736C23.4345 22.2332 24.8078 24.6053 26.1686 26.9774C26.2935 27.1896 26.3934 27.4018 26.5182 27.6016C25.7691 28.9 25.0201 30.1859 24.2585 31.4843C23.2098 33.2946 22.1611 35.1173 21.0999 36.9276C21.0499 36.9276 21.0375 36.9026 21.025 36.8652C21.0125 36.7653 21.0499 36.6779 21.0749 36.578C21.5868 34.7053 21.1623 33.0449 19.8764 31.6216C19.0899 30.7602 18.0911 30.2733 16.9425 30.111C15.4444 29.8988 14.121 30.2858 12.9349 31.2221C12.7227 31.3844 12.5854 31.6216 12.3357 31.7465C12.2857 31.7465 12.2608 31.7215 12.2483 31.6841C12.8476 30.6478 13.4343 29.6116 14.0336 28.5754C16.5055 24.2807 18.9775 19.986 21.4619 15.7037C21.4869 15.6538 21.5244 15.6163 21.5493 15.5664Z" fill="#C9C9C9"/>
<path d="M12.2981 31.721C12.5353 31.5087 12.7601 31.284 13.0097 31.0842C16.0435 28.6872 20.6004 30.4226 21.2621 34.2179C21.4244 35.1293 21.337 36.0032 21.0623 36.8771C21.0498 36.952 21.0374 37.0144 21.0124 37.0893C20.9 37.2891 20.8002 37.5013 20.6753 37.7011C19.5642 39.5363 17.9287 40.4477 15.7813 40.3104C13.3219 40.1356 11.3867 38.2879 11.0497 35.8409C10.8874 34.6548 11.1246 33.5437 11.7363 32.52C11.8612 32.2953 12.011 32.0955 12.1483 31.8708C12.2107 31.8208 12.1858 31.721 12.2981 31.721Z" fill="white"/>
<path d="M12.298 31.7218C12.248 31.7718 12.248 31.8591 12.1606 31.8716C12.1481 31.7842 12.1981 31.7343 12.248 31.6719L12.298 31.7218Z" fill="#989898"/>
<path d="M21.0124 37.0892C20.9624 37.0018 21.0124 36.9394 21.0623 36.877C21.0748 36.8894 21.0998 36.9144 21.1123 36.9269L21.0124 37.0892Z" fill="#A8A8A8"/>
</svg>
