<svg width="48" height="48" viewBox="0 0 48 48" fill="none" xmlns="http://www.w3.org/2000/svg">
<rect width="48" height="48" rx="12" fill="#DADADA"/>
<path d="M6.57007 24C6.57007 14.3348 14.4031 6.5 24.0701 6.5C33.7336 6.5 41.5701 14.3348 41.5701 24C41.5701 33.6652 33.7336 41.5 24.0701 41.5C14.4031 41.5 6.57007 33.6652 6.57007 24Z" fill="#DADADA"/>
<path d="M26.3099 16.416H24.6929C21.7284 16.416 20.1692 17.9175 20.1692 20.1312C20.1692 22.6337 21.2472 23.8062 23.4609 25.3095L25.2897 26.5415L20.0344 34.3937H16.1074L20.8237 27.3692C18.1112 25.425 16.5887 23.5367 16.5887 20.343C16.5887 16.339 19.3799 13.6055 24.6737 13.6055H29.9289V34.3745H26.3099V16.416Z" fill="white"/>
</svg>
