<svg width="48" height="48" viewBox="0 0 48 48" fill="none" xmlns="http://www.w3.org/2000/svg">
<rect width="48" height="48" rx="12" fill="#828EFF"/>
<g clip-path="url(#clip0_378_862)">
<path d="M14 12.4531H32C32 12.4531 33.5 12.4531 33.5 13.9531V24.9531C33.5 24.9531 33.5 26.4531 32 26.4531H14C14 26.4531 12.5 26.4531 12.5 24.9531V13.9531C12.5 13.9531 12.5 12.4531 14 12.4531Z" fill="white" fill-opacity="0.2"/>
<path d="M14 12.4531C13.6022 12.4531 13.2206 12.6112 12.9393 12.8925C12.658 13.1738 12.5 13.5553 12.5 13.9531V24.9531C12.5 25.3509 12.658 25.7325 12.9393 26.0138C13.2206 26.2951 13.6022 26.4531 14 26.4531H15.336L29.336 12.4531H14Z" fill="white" fill-opacity="0.44"/>
<path d="M16.5 26.4531H14C13.6022 26.4531 13.2206 26.2951 12.9393 26.0138C12.658 25.7325 12.5 25.3509 12.5 24.9531V13.9531C12.5 13.7561 12.5388 13.5611 12.6142 13.3791C12.6896 13.1971 12.8001 13.0318 12.9393 12.8925C13.2206 12.6112 13.6022 12.4531 14 12.4531H32C32.3978 12.4531 32.7794 12.6112 33.0607 12.8925C33.342 13.1738 33.5 13.5553 33.5 13.9531V23.4531" stroke="white" stroke-linecap="round" stroke-linejoin="round"/>
<path d="M33.0671 12.9004L23.0001 20.9544L12.9331 12.9004" stroke="white" stroke-linecap="round" stroke-linejoin="round"/>
<path d="M26.5002 30.9531V28.9531C34.5002 28.9531 35.5002 35.4531 35.5002 35.4531C35.5002 35.4531 35.5002 25.9531 26.5002 25.9531V23.9531L22.0142 27.4531L26.5002 30.9531Z" fill="white" fill-opacity="0.22"/>
<path d="M26.5002 23.9531L22.0142 27.4531L26.5002 30.9531V28.9531C27.432 28.946 28.3615 29.0467 29.2702 29.2531L31.3172 27.2051C29.8626 26.3396 28.192 25.9054 26.5002 25.9531V23.9531Z" fill="white" fill-opacity="0.2"/>
<path d="M26.5002 30.9531V28.9531C34.5002 28.9531 35.5002 35.4531 35.5002 35.4531C35.5002 35.4531 35.5002 25.9531 26.5002 25.9531V23.9531L22.0142 27.4531L26.5002 30.9531Z" stroke="white" stroke-linecap="round" stroke-linejoin="round"/>
<path d="M23 23.9531L18.5 27.4531L23 30.9531" stroke="white" stroke-linecap="round" stroke-linejoin="round"/>
</g>
<defs>
<clipPath id="clip0_378_862">
<rect width="24" height="24" fill="white" transform="translate(12 12)"/>
</clipPath>
</defs>
</svg>
