<svg width="62" height="62" viewBox="0 0 62 62" fill="none" xmlns="http://www.w3.org/2000/svg">
<rect width="62" height="62" rx="12" fill="white"/>
<path d="M36 39.7324V44.2591C36 46.6358 34 47.5924 31 47.5924C28 47.5924 26 46.6358 26 44.2591V39.7324" fill="#828EFF" fill-opacity="0.2"/>
<path d="M36 39.7324V44.2591C36 46.6358 34 47.5924 31 47.5924C28 47.5924 26 46.6358 26 44.2591V39.7324" stroke="#828EFF" stroke-linecap="round" stroke-linejoin="round"/>
<path d="M35.1667 40.0911C37.1628 39.2998 38.8703 37.9187 40.0614 36.1321C41.2525 34.3454 41.8706 32.2381 41.8333 30.0911C41.782 27.234 40.6242 24.5082 38.6035 22.4876C36.5829 20.467 33.8571 19.3092 31 19.2578C28.1427 19.3087 25.4167 20.4665 23.396 22.4872C21.3753 24.5079 20.2176 27.2339 20.1667 30.0911C20.1289 32.2382 20.7469 34.3457 21.938 36.1325C23.1292 37.9192 24.8369 39.3002 26.8333 40.0911H35.1667Z" fill="#828EFF" fill-opacity="0.3"/>
<path d="M31 24.7328C33.404 24.777 35.7277 25.6059 37.617 27.0932C39.5063 28.5805 40.8576 30.6446 41.465 32.9711C41.7199 32.0327 41.8438 31.0635 41.8333 30.0911C41.7824 27.2339 40.6247 24.5079 38.6039 22.4872C36.5832 20.4665 33.8572 19.3087 31 19.2578C28.1428 19.3092 25.4171 20.467 23.3964 22.4876C21.3758 24.5082 20.218 27.234 20.1666 30.0911C20.1562 31.0641 20.2802 32.0338 20.535 32.9728C21.142 30.646 22.4931 28.5815 24.3825 27.0938C26.2718 25.6062 28.5957 24.7771 31 24.7328Z" fill="#828EFF" fill-opacity="0.2"/>
<path d="M35.1667 40.0911C37.1628 39.2998 38.8703 37.9187 40.0614 36.1321C41.2525 34.3454 41.8706 32.2381 41.8333 30.0911C41.782 27.234 40.6242 24.5082 38.6035 22.4876C36.5829 20.467 33.8571 19.3092 31 19.2578C28.1427 19.3087 25.4167 20.4665 23.396 22.4872C21.3753 24.5079 20.2176 27.2339 20.1667 30.0911C20.1289 32.2382 20.7469 34.3457 21.938 36.1325C23.1292 37.9192 24.8369 39.3002 26.8333 40.0911H35.1667Z" stroke="#828EFF" stroke-linecap="round" stroke-linejoin="round"/>
<path d="M32.6667 40.0909V30.0909C32.6667 29.7612 32.7644 29.439 32.9476 29.1649C33.1307 28.8908 33.391 28.6772 33.6955 28.5511C34.0001 28.4249 34.3352 28.3919 34.6585 28.4562C34.9818 28.5205 35.2788 28.6793 35.5118 28.9123C35.7449 29.1454 35.9037 29.4424 35.968 29.7657C36.0323 30.089 35.9993 30.4241 35.8731 30.7287C35.747 31.0332 35.5334 31.2935 35.2593 31.4766C34.9852 31.6598 34.663 31.7575 34.3333 31.7575H27.6667C27.2246 31.7575 26.8007 31.5819 26.4882 31.2694C26.1756 30.9568 26 30.5329 26 30.0909C26 29.6488 26.1756 29.2249 26.4882 28.9123C26.8007 28.5998 27.2246 28.4242 27.6667 28.4242C27.8887 28.4122 28.1108 28.447 28.3184 28.5265C28.5261 28.606 28.7147 28.7284 28.8719 28.8856C29.0291 29.0429 29.1515 29.2314 29.231 29.4391C29.3105 29.6468 29.3454 29.8688 29.3333 30.0909V40.0909" stroke="#828EFF" stroke-linecap="round" stroke-linejoin="round"/>
<path d="M26 43.4258H36" stroke="#828EFF" stroke-linecap="round" stroke-linejoin="round"/>
<path d="M31 11.9082V15.0915" stroke="#828EFF" stroke-linecap="round" stroke-linejoin="round"/>
<path d="M31 47.5918V50.0918" stroke="#828EFF" stroke-linecap="round" stroke-linejoin="round"/>
<path d="M12.6666 28.4258H16.485" stroke="#828EFF" stroke-linecap="round" stroke-linejoin="round"/>
<path d="M16.985 16.0742L20.1667 19.2576" stroke="#828EFF" stroke-linecap="round" stroke-linejoin="round"/>
<path d="M49.3333 28.4258H45.515" stroke="#828EFF" stroke-linecap="round" stroke-linejoin="round"/>
<path d="M45.015 16.0742L41.8334 19.2576" stroke="#828EFF" stroke-linecap="round" stroke-linejoin="round"/>
</svg>
