<svg width="62" height="62" viewBox="0 0 62 62" fill="none" xmlns="http://www.w3.org/2000/svg">
<rect width="62" height="62" rx="12" fill="white"/>
<g clip-path="url(#clip0_284_406)">
<path d="M11.8334 13.5007C11.8334 13.0586 12.009 12.6347 12.3215 12.3221C12.6341 12.0096 13.058 11.834 13.5 11.834H48.5C48.9421 11.834 49.366 12.0096 49.6786 12.3221C49.9911 12.6347 50.1667 13.0586 50.1667 13.5007V35.1673C50.1667 35.6093 49.9911 36.0333 49.6786 36.3458C49.366 36.6584 48.9421 36.834 48.5 36.834H13.5C13.058 36.834 12.6341 36.6584 12.3215 36.3458C12.009 36.0333 11.8334 35.6093 11.8334 35.1673V13.5007Z" fill="#828EFF" fill-opacity="0.3"/>
<path d="M13.5 11.834C13.058 11.834 12.6341 12.0096 12.3215 12.3221C12.009 12.6347 11.8334 13.0586 11.8334 13.5007V35.1673C11.836 35.4616 11.9177 35.7497 12.0699 36.0016C12.222 36.2534 12.4391 36.4598 12.6984 36.599L37.465 11.834H13.5Z" fill="white"/>
<path d="M11.8334 13.5007C11.8334 13.0586 12.009 12.6347 12.3215 12.3221C12.6341 12.0096 13.058 11.834 13.5 11.834H48.5C48.9421 11.834 49.366 12.0096 49.6786 12.3221C49.9911 12.6347 50.1667 13.0586 50.1667 13.5007V35.1673C50.1667 35.6093 49.9911 36.0333 49.6786 36.3458C49.366 36.6584 48.9421 36.834 48.5 36.834H13.5C13.058 36.834 12.6341 36.6584 12.3215 36.3458C12.009 36.0333 11.8334 35.6093 11.8334 35.1673V13.5007Z" stroke="#828EFF" stroke-linecap="round" stroke-linejoin="round"/>
<path d="M30.1666 36.834V42.5257" stroke="#828EFF" stroke-linecap="round" stroke-linejoin="round"/>
<path d="M21.8334 50.1664L29 42.9997C29.3126 42.6872 29.7364 42.5117 30.1784 42.5117C30.6203 42.5117 31.0442 42.6872 31.3567 42.9997L38.5 50.1664" stroke="#828EFF" stroke-linecap="round" stroke-linejoin="round"/>
<path d="M11.8334 25.1667H21.2834C21.446 25.1672 21.6053 25.1202 21.7415 25.0313C21.8777 24.9425 21.985 24.8157 22.05 24.6667L23.5267 21.2167C23.5919 21.0639 23.7012 20.9342 23.8407 20.844C23.9801 20.7538 24.1433 20.7074 24.3093 20.7106C24.4753 20.7138 24.6366 20.7666 24.7725 20.8621C24.9083 20.9576 25.0125 21.0915 25.0717 21.2467L27.855 28.485C27.912 28.6336 28.0104 28.7628 28.1386 28.8573C28.2667 28.9518 28.4192 29.0076 28.578 29.0181C28.7369 29.0286 28.8954 28.9934 29.0349 28.9167C29.1744 28.8399 29.2889 28.7248 29.365 28.585L32.82 22.2517C32.8897 22.1239 32.9915 22.0165 33.1155 21.9403C33.2395 21.8641 33.3813 21.8217 33.5268 21.8173C33.6722 21.8129 33.8163 21.8467 33.9447 21.9153C34.073 21.9839 34.1812 22.0849 34.2584 22.2083L36.845 26.35C36.9248 26.4781 37.0378 26.5822 37.1721 26.6511C37.3063 26.72 37.4568 26.7511 37.6073 26.7412C37.7579 26.7313 37.903 26.6806 38.027 26.5947C38.1511 26.5088 38.2495 26.3908 38.3117 26.2533L41.8334 18.5" stroke="#828EFF" stroke-linecap="round" stroke-linejoin="round"/>
</g>
<defs>
<clipPath id="clip0_284_406">
<rect width="40" height="40" fill="white" transform="translate(11 11)"/>
</clipPath>
</defs>
</svg>
