<svg width="48" height="48" viewBox="0 0 48 48" fill="none" xmlns="http://www.w3.org/2000/svg">
<rect width="48" height="48" rx="12" fill="#828EFF"/>
<g clip-path="url(#clip0_378_932)">
<path d="M30.5 35.5H13.5C13.2348 35.5 12.9804 35.3946 12.7929 35.2071C12.6054 35.0196 12.5 34.7652 12.5 34.5V13.5C12.5 13.2348 12.6054 12.9804 12.7929 12.7929C12.9804 12.6054 13.2348 12.5 13.5 12.5H26.791C26.9226 12.4998 27.053 12.5255 27.1747 12.5758C27.2964 12.6261 27.4069 12.6999 27.5 12.793L31.209 16.5C31.3965 16.6875 31.5019 16.9418 31.502 17.207V34.5C31.502 34.6315 31.4761 34.7617 31.4257 34.8831C31.3753 35.0046 31.3015 35.1149 31.2084 35.2078C31.1153 35.3007 31.0049 35.3743 30.8833 35.4245C30.7617 35.4746 30.6315 35.5003 30.5 35.5Z" fill="white" fill-opacity="0.18"/>
<path d="M29.356 14.648L27.5 12.793C27.4069 12.6999 27.2964 12.6261 27.1747 12.5758C27.053 12.5255 26.9226 12.4998 26.791 12.5H13.5C13.2348 12.5 12.9804 12.6054 12.7929 12.7929C12.6054 12.9804 12.5 13.2348 12.5 13.5V31.505L29.356 14.648Z" fill="white" fill-opacity="0.36"/>
<path d="M20.5 35.5H13.5C13.2348 35.5 12.9804 35.3946 12.7929 35.2071C12.6054 35.0196 12.5 34.7652 12.5 34.5V13.5C12.5 13.2348 12.6054 12.9804 12.7929 12.7929C12.9804 12.6054 13.2348 12.5 13.5 12.5H26.792C26.9235 12.4999 27.0537 12.5257 27.1752 12.576C27.2967 12.6263 27.407 12.7 27.5 12.793L31.209 16.5C31.3965 16.6875 31.5019 16.9418 31.502 17.207V20.5" stroke="white" stroke-linecap="round" stroke-linejoin="round"/>
<path d="M15.5 20.7715L16.584 21.8535C16.6351 21.9051 16.6968 21.945 16.7648 21.9704C16.8328 21.9958 16.9056 22.0061 16.978 22.0005C17.0504 21.9946 17.1206 21.9731 17.1838 21.9373C17.247 21.9016 17.3017 21.8525 17.344 21.7935L19.5 18.7715" stroke="white" stroke-linecap="round" stroke-linejoin="round"/>
<path d="M22.5 20.5H26.5" stroke="white" stroke-linecap="round" stroke-linejoin="round"/>
<path d="M15.5 25.7715L16.583 26.8535C16.6342 26.9053 16.696 26.9452 16.7643 26.9706C16.8325 26.996 16.9054 27.0062 16.978 27.0005C17.0504 26.9946 17.1206 26.9731 17.1838 26.9373C17.247 26.9016 17.3017 26.8525 17.344 26.7935L19.5 23.7715" stroke="white" stroke-linecap="round" stroke-linejoin="round"/>
<path d="M22.5 25.5H26.5" stroke="white" stroke-linecap="round" stroke-linejoin="round"/>
<path d="M34.881 27.1176L27.251 34.7486L23.501 35.4986L24.251 31.7486L31.881 24.1176C32.2778 23.7209 32.8159 23.498 33.377 23.498C33.9381 23.498 34.4762 23.7209 34.873 24.1176L34.881 24.1266C35.0775 24.3229 35.2334 24.556 35.3397 24.8126C35.4461 25.0692 35.5008 25.3443 35.5008 25.6221C35.5008 25.8998 35.4461 26.1749 35.3397 26.4315C35.2334 26.6881 35.0775 26.9212 34.881 27.1176Z" fill="white" fill-opacity="0.24" stroke="white" stroke-linecap="round" stroke-linejoin="round"/>
</g>
<defs>
<clipPath id="clip0_378_932">
<rect width="24" height="24" fill="white" transform="translate(12 12)"/>
</clipPath>
</defs>
</svg>
