<svg width="48" height="48" viewBox="0 0 48 48" fill="none" xmlns="http://www.w3.org/2000/svg">
<rect width="48" height="48" rx="12" fill="#828EFF"/>
<g clip-path="url(#clip0_378_829)">
<path d="M24.5 17.75C24.5 19.275 25.1058 20.7375 26.1841 21.8159C27.2625 22.8942 28.725 23.5 30.25 23.5C31.775 23.5 33.2375 22.8942 34.3159 21.8159C35.3942 20.7375 36 19.275 36 17.75C36 16.225 35.3942 14.7625 34.3159 13.6841C33.2375 12.6058 31.775 12 30.25 12C28.725 12 27.2625 12.6058 26.1841 13.6841C25.1058 14.7625 24.5 16.225 24.5 17.75Z" fill="white" fill-opacity="0.24"/>
<path d="M19.4932 22.0121C19.679 21.8264 19.8264 21.6059 19.9269 21.3632C20.0275 21.1205 20.0792 20.8603 20.0792 20.5976C20.0792 20.3349 20.0275 20.0748 19.9269 19.8321C19.8264 19.5894 19.679 19.3689 19.4932 19.1831L17.3712 17.0621C16.9961 16.6872 16.4875 16.4766 15.9572 16.4766C15.4268 16.4766 14.9182 16.6872 14.5432 17.0621L13.3792 18.2261C12.8912 18.7152 12.587 19.3577 12.518 20.0452C12.4489 20.7326 12.6192 21.4228 13.0002 21.9991C16.4253 27.1543 20.845 31.574 26.0002 34.9991C26.5766 35.3803 27.267 35.5508 27.9547 35.4818C28.6423 35.4127 29.285 35.1083 29.7742 34.6201L30.9392 33.4561C31.3141 33.0811 31.5247 32.5725 31.5247 32.0421C31.5247 31.5118 31.3141 31.0032 30.9392 30.6281L28.8172 28.5071C28.6314 28.3213 28.4109 28.1739 28.1682 28.0734C27.9255 27.9728 27.6654 27.9211 27.4027 27.9211C27.14 27.9211 26.8798 27.9728 26.6371 28.0734C26.3944 28.1739 26.1739 28.3213 25.9882 28.5071L25.2812 29.2141C22.9093 27.2628 20.7325 25.086 18.7812 22.7141L19.4932 22.0121Z" fill="white" fill-opacity="0.24"/>
<path d="M18.7862 22.7191L19.4932 22.0121C19.679 21.8264 19.8264 21.6059 19.9269 21.3632C20.0275 21.1205 20.0792 20.8603 20.0792 20.5976C20.0792 20.3349 20.0275 20.0748 19.9269 19.8321C19.8264 19.5894 19.679 19.3689 19.4932 19.1831L17.3712 17.0621C16.9961 16.6872 16.4875 16.4766 15.9572 16.4766C15.4268 16.4766 14.9182 16.6872 14.5432 17.0621L13.3792 18.2261C12.8912 18.7152 12.587 19.3577 12.518 20.0452C12.4489 20.7326 12.6192 21.4228 13.0002 21.9991C14.5712 24.3611 16.3572 26.5728 18.3352 28.6061L21.3602 25.5831C20.4619 24.6655 19.6031 23.7099 18.7862 22.7191Z" fill="white" fill-opacity="0.44"/>
<path d="M19.492 22.0116C19.8669 21.6366 20.0776 21.128 20.0776 20.5976C20.0776 20.0673 19.8669 19.5587 19.492 19.1836L17.37 17.0626C17.1843 16.8768 16.9637 16.7294 16.721 16.6289C16.4783 16.5283 16.2182 16.4766 15.9555 16.4766C15.6928 16.4766 15.4326 16.5283 15.1899 16.6289C14.9472 16.7294 14.7267 16.8768 14.541 17.0626L13.378 18.2256C12.8899 18.7149 12.5858 19.3577 12.5169 20.0453C12.448 20.733 12.6187 21.4233 13 21.9996C16.4251 27.1548 20.8448 31.5745 26 34.9996C26.5764 35.3806 27.2665 35.5509 27.954 35.4818C28.6414 35.4128 29.2839 35.1086 29.773 34.6206L30.937 33.4566C31.3119 33.0816 31.5226 32.573 31.5226 32.0426C31.5226 31.5123 31.3119 31.0037 30.937 30.6286L28.816 28.5096C28.4409 28.1347 27.9323 27.9241 27.402 27.9241C26.8717 27.9241 26.363 28.1347 25.988 28.5096L25.281 29.2166C22.909 27.2655 20.7321 25.0886 18.781 22.7166L19.492 22.0116Z" stroke="white" stroke-linecap="round" stroke-linejoin="round"/>
<path d="M35.5 12.502L25.5 22.502" stroke="white" stroke-linecap="round" stroke-linejoin="round"/>
<path d="M29 12.502H35.5V19.002" stroke="white" stroke-linecap="round" stroke-linejoin="round"/>
</g>
<defs>
<clipPath id="clip0_378_829">
<rect width="24" height="24" fill="white" transform="translate(12 12)"/>
</clipPath>
</defs>
</svg>
