<svg width="62" height="62" viewBox="0 0 62 62" fill="none" xmlns="http://www.w3.org/2000/svg">
<rect width="62" height="62" rx="12" fill="white"/>
<path d="M30.5 46.834C33.4667 46.834 36.3668 45.9543 38.8336 44.306C41.3003 42.6578 43.2229 40.3151 44.3582 37.5742C45.4935 34.8334 45.7906 31.8174 45.2118 28.9076C44.633 25.9979 43.2044 23.3252 41.1066 21.2274C39.0088 19.1296 36.3361 17.701 33.4264 17.1222C30.5166 16.5434 27.5006 16.8405 24.7597 17.9758C22.0189 19.1111 19.6762 21.0337 18.028 23.5004C16.3797 25.9672 15.5 28.8673 15.5 31.834C15.5 35.8122 17.0804 39.6275 19.8934 42.4406C22.7064 45.2536 26.5218 46.834 30.5 46.834Z" fill="#828EFF" fill-opacity="0.2"/>
<path d="M30.5 38.4993C27.2499 38.4976 24.0882 37.4403 21.4909 35.4865C18.8936 33.5327 17.0011 30.7882 16.0983 27.666C15.4473 29.9013 15.3256 32.2575 15.7428 34.548C16.1599 36.8385 17.1045 39.0004 18.5018 40.8627C19.8991 42.7249 21.7106 44.2364 23.7931 45.2774C25.8756 46.3184 28.1718 46.8603 30.5 46.8603C32.8282 46.8603 35.1244 46.3184 37.2069 45.2774C39.2894 44.2364 41.1009 42.7249 42.4982 40.8627C43.8955 39.0004 44.8401 36.8385 45.2572 34.548C45.6744 32.2575 45.5527 29.9013 44.9017 27.666C43.9989 30.7882 42.1064 33.5327 39.5091 35.4865C36.9118 37.4403 33.7501 38.4976 30.5 38.4993Z" fill="#828EFF" fill-opacity="0.3"/>
<path d="M30.5 40.1667C32.1481 40.1667 33.7593 39.6779 35.1297 38.7623C36.5001 37.8466 37.5682 36.5451 38.199 35.0224C38.8297 33.4996 38.9947 31.8241 38.6732 30.2076C38.3516 28.5911 37.558 27.1062 36.3925 25.9408C35.2271 24.7753 33.7422 23.9817 32.1257 23.6601C30.5092 23.3386 28.8336 23.5036 27.3109 24.1343C25.7882 24.7651 24.4867 25.8332 23.571 27.2036C22.6554 28.574 22.1666 30.1852 22.1666 31.8333C22.1666 34.0435 23.0446 36.1631 24.6074 37.7259C26.1702 39.2887 28.2898 40.1667 30.5 40.1667Z" fill="white" stroke="#828EFF" stroke-linecap="round" stroke-linejoin="round"/>
<path d="M45.1416 28.4997C45.8637 31.6864 45.5255 35.0218 44.1783 37.9987C42.8312 40.9755 40.5489 43.4311 37.6784 44.9921C34.8078 46.5531 31.5061 47.134 28.2752 46.6467C25.0442 46.1593 22.0608 44.6303 19.7784 42.292C17.496 39.9538 16.0396 36.9343 15.6305 33.6925C15.2214 30.4507 15.882 27.164 17.512 24.332C19.1419 21.5001 21.6519 19.2778 24.6605 18.0031C27.6691 16.7283 31.0116 16.4708 34.18 17.2697" stroke="#828EFF" stroke-linecap="round" stroke-linejoin="round"/>
<path d="M21.1567 43.5684L15.5 50.1667" stroke="#828EFF" stroke-linecap="round" stroke-linejoin="round"/>
<path d="M39.8434 43.5684L45.5 50.1667" stroke="#828EFF" stroke-linecap="round" stroke-linejoin="round"/>
<path d="M30.5 31.8327L39.6667 22.666" stroke="#828EFF" stroke-linecap="round" stroke-linejoin="round"/>
<path d="M40.6433 15.8573C40.0181 16.4823 39.6668 17.33 39.6666 18.214V22.6673H44.12C45.0039 22.6671 45.8517 22.3158 46.4766 21.6907L50.5 17.6673H44.6666V11.834L40.6433 15.8573Z" fill="#828EFF" fill-opacity="0.3" stroke="#828EFF" stroke-linecap="round" stroke-linejoin="round"/>
</svg>
