<svg width="78" height="34" viewBox="0 0 78 34" fill="none" xmlns="http://www.w3.org/2000/svg">
<path d="M12.9287 17.0089C12.9287 14.9533 14.5214 13.2871 16.4865 13.2871H28.0453V20.7315H16.4873C14.5223 20.7315 12.9287 19.0645 12.9287 17.0089Z" fill="url(#paint0_linear_517_9713)"/>
<path d="M16.2466 10.1934C17.6288 10.1934 18.904 10.6475 19.9583 11.4255C20.5515 11.8514 21.0743 12.3892 21.491 12.9916C22.2887 14.1218 22.7488 15.5122 22.7488 17.0045C22.7488 21.74 24.6182 26.0396 27.621 29.1162C30.6238 26.0396 32.4931 21.74 32.4931 17.0045C32.4931 15.2347 32.2365 13.5294 31.7494 11.926C30.943 9.22888 29.5086 6.81019 27.621 4.88288C27.2226 4.46612 26.7972 4.07665 26.3544 3.71539C25.8673 3.30773 25.3619 2.92736 24.8304 2.58522C22.3409 0.944546 19.3998 0 16.2466 0C7.29038 0 0 7.62643 0 17.0045C0 26.3736 7.29038 34 16.2466 34C18.5587 34 20.7647 33.4904 22.7488 32.5732C23.4752 32.2392 24.1658 31.8598 24.8304 31.4148C22.5627 28.9779 20.8621 25.9568 19.967 22.5745C18.9127 23.3525 17.6288 23.8066 16.2466 23.8066C12.6592 23.8066 9.74428 20.7482 9.74428 17.0045C9.74428 13.2518 12.6592 10.1934 16.2466 10.1934Z" fill="url(#paint1_linear_517_9713)"/>
<path d="M55.2496 16.7863C55.2305 15.0965 54.9747 13.4658 54.5111 11.9298C53.7021 9.22811 52.266 6.81397 50.3775 4.87574C47.4434 1.86284 43.4246 0.00195312 38.9944 0.00195312C35.2644 0.00195312 31.8284 1.32141 29.0848 3.54446C28.5724 3.96031 28.0845 4.40801 27.6217 4.88393C27.6191 4.88666 27.6191 4.88666 27.6191 4.88939C25.7306 6.81852 24.2979 9.23266 23.4942 11.9262C23.3611 12.3711 23.2436 12.8243 23.1427 13.2829C22.8835 14.4804 22.7478 15.7253 22.7478 17.0056C22.7478 17.3022 22.7556 17.5953 22.7695 17.8892C22.7748 17.9865 22.7809 18.0803 22.7887 18.1767C22.8052 18.4443 22.827 18.7127 22.8591 18.9775C22.8705 19.0912 22.8835 19.2023 22.8974 19.3169C22.9026 19.3479 22.9052 19.377 22.9113 19.4079C22.9279 19.5362 22.947 19.6618 22.9661 19.7874C22.9931 19.9612 23.0236 20.1377 23.0592 20.3115C23.0862 20.4507 23.114 20.5909 23.1436 20.7274C23.1871 20.9294 23.2332 21.1323 23.2854 21.3316C23.3341 21.5309 23.3889 21.7301 23.4463 21.9276C23.555 22.3034 23.6751 22.6747 23.809 23.0359C23.9648 23.4636 24.1361 23.8822 24.324 24.2926C24.384 24.4291 24.4467 24.5638 24.5145 24.6948C24.6293 24.9314 24.7485 25.1653 24.8738 25.3928C24.9312 25.5011 24.9912 25.6093 25.0538 25.7149C25.1869 25.9488 25.3261 26.1762 25.4705 26.4019C25.5444 26.5184 25.6175 26.633 25.6967 26.7468C25.8271 26.9433 25.9637 27.1372 26.1029 27.3255C26.2038 27.4648 26.3073 27.5994 26.4134 27.7332C26.5413 27.8988 26.6727 28.0608 26.8084 28.2209C26.8492 28.2719 26.8927 28.321 26.9362 28.3693C27.0206 28.4694 27.105 28.5658 27.1954 28.6632C27.2094 28.6805 27.225 28.6978 27.2415 28.7141C27.3642 28.8506 27.4921 28.9853 27.6234 29.1191C30.6262 26.0407 32.4947 21.7429 32.4947 17.0056C32.4947 13.252 35.4183 10.1936 38.9952 10.1936C42.5452 10.1936 45.447 13.1892 45.5045 16.8891V16.9292C45.5071 16.9546 45.5071 16.9801 45.5071 17.0065C45.5071 17.032 45.5071 17.0547 45.5045 17.0802V32.5742H45.5071C47.3294 31.7416 48.9778 30.565 50.3783 29.1282C53.3159 26.1153 55.1652 21.9458 55.2496 17.3314C55.2496 17.2513 55.2522 17.1685 55.2522 17.0893V16.9301C55.2522 16.88 55.2522 16.8345 55.2496 16.7863Z" fill="url(#paint2_linear_517_9713)"/>
<path d="M61.7527 0.00390625C57.3251 0.00390625 53.3115 1.86479 50.3774 4.87496C48.489 6.81319 47.0511 9.22733 46.2438 11.929C45.7697 13.4969 45.514 15.1612 45.5027 16.8883V17.0794C45.5027 17.1277 45.5027 17.1732 45.5053 17.2223C45.5601 21.8795 47.4155 26.089 50.3766 29.1274C51.7771 30.567 53.4255 31.7408 55.2478 32.5762V17.3306C55.2478 17.2505 55.2504 17.1677 55.2504 17.0885C55.2478 17.0603 55.2478 17.0312 55.2478 17.003C55.2478 16.9775 55.2478 16.9548 55.2504 16.9293C55.2861 13.2093 58.1906 10.1974 61.751 10.1974C65.3366 10.1974 68.255 13.2503 68.255 17.0039V32.5762C73.9848 29.9482 77.9984 23.957 77.9984 17.003C78.0001 7.62852 70.7115 0.00390625 61.7527 0.00390625Z" fill="url(#paint3_linear_517_9713)"/>
<path d="M55.2521 17.0039V17.0895C55.2521 17.1695 55.2495 17.2524 55.2495 17.3315V17.0039H55.2521Z" fill="white"/>
<path d="M45.506 17.0039H45.5034V33.5835H45.506V17.0039Z" fill="white"/>
<path d="M55.2494 11.9316H45.5034V33.5879H55.2494V11.9316Z" fill="url(#paint4_linear_517_9713)"/>
<path d="M78 17.0039H68.2566V33.5862H78V17.0039Z" fill="url(#paint5_linear_517_9713)"/>
<path d="M32.4933 17.0053C32.4933 21.7407 30.624 26.0403 27.6212 29.1169C24.6184 26.0403 22.749 21.7407 22.749 17.0053C22.749 15.5129 22.288 14.1234 21.4912 12.9923C21.0745 12.3899 20.5526 11.8521 19.9585 11.4263C20.8623 8.05302 22.5629 5.02283 24.8306 2.58594C25.3621 2.929 25.8675 3.30845 26.3546 3.71612C26.7974 4.07737 27.2228 4.46684 27.6212 4.8836C29.5079 6.81091 30.9432 9.22961 31.7496 11.9267C32.2367 13.5301 32.4933 15.2354 32.4933 17.0053Z" fill="url(#paint6_linear_517_9713)"/>
<path opacity="0.17" d="M34.1037 12.5207C33.9237 12.7345 33.7601 12.9566 33.6105 13.1904C33.6105 13.1932 33.6105 13.1932 33.6079 13.1932C32.8998 14.2824 32.4858 15.5955 32.4858 17.0068C32.4858 16.3344 32.4501 15.6674 32.377 15.0149C32.257 13.9521 32.0447 12.9202 31.742 11.9283C30.9357 9.23208 29.4995 6.81521 27.6145 4.88517C28.0773 4.40926 28.5679 3.95882 29.0828 3.54297C31.4254 5.99897 33.1851 9.07739 34.1037 12.5207Z" fill="url(#paint7_linear_517_9713)"/>
<defs>
<linearGradient id="paint0_linear_517_9713" x1="10.7645" y1="5.74803" x2="28.5637" y2="22.7629" gradientUnits="userSpaceOnUse">
<stop offset="0.165" stop-color="#6B8EFD"/>
<stop offset="1" stop-color="#94CCFB"/>
</linearGradient>
<linearGradient id="paint1_linear_517_9713" x1="7.8522" y1="8.22383" x2="27.4925" y2="26.9987" gradientUnits="userSpaceOnUse">
<stop offset="0.165" stop-color="#6B8EFD"/>
<stop offset="1" stop-color="#94CCFB"/>
</linearGradient>
<linearGradient id="paint2_linear_517_9713" x1="28.6517" y1="6.17234" x2="65.1857" y2="41.0965" gradientUnits="userSpaceOnUse">
<stop stop-color="#6E74D0"/>
<stop offset="1" stop-color="#838BFF"/>
</linearGradient>
<linearGradient id="paint3_linear_517_9713" x1="46.4311" y1="33.0289" x2="76.4001" y2="4.38056" gradientUnits="userSpaceOnUse">
<stop stop-color="#6E74D0"/>
<stop offset="1" stop-color="#838BFF"/>
</linearGradient>
<linearGradient id="paint4_linear_517_9713" x1="43.4931" y1="29.9595" x2="73.4651" y2="1.3083" gradientUnits="userSpaceOnUse">
<stop stop-color="#6E74D0"/>
<stop offset="1" stop-color="#838BFF"/>
</linearGradient>
<linearGradient id="paint5_linear_517_9713" x1="56.0824" y1="43.1264" x2="86.0505" y2="14.4789" gradientUnits="userSpaceOnUse">
<stop stop-color="#6E74D0"/>
<stop offset="1" stop-color="#838BFF"/>
</linearGradient>
<linearGradient id="paint6_linear_517_9713" x1="13.5421" y1="2.27258" x2="33.1825" y2="21.0475" gradientUnits="userSpaceOnUse">
<stop offset="0.165" stop-color="#6B8EFD"/>
<stop offset="1" stop-color="#94CCFB"/>
</linearGradient>
<linearGradient id="paint7_linear_517_9713" x1="31.2981" y1="9.91576" x2="33.0216" y2="8.8174" gradientUnits="userSpaceOnUse">
<stop offset="0.165"/>
<stop offset="1" stop-opacity="0"/>
</linearGradient>
</defs>
</svg>
