<svg width="52" height="52" viewBox="0 0 52 52" fill="none" xmlns="http://www.w3.org/2000/svg">
<rect x="1" y="1" width="50" height="50" rx="13" fill="#2AABEE"/>
<rect x="1" y="1" width="50" height="50" rx="13" stroke="#F0F4F8" stroke-width="2"/>
<g clip-path="url(#clip0_80_1143)">
<path d="M25.5 45C36.2696 45 45 36.2696 45 25.5C45 14.7304 36.2696 6 25.5 6C14.7304 6 6 14.7304 6 25.5C6 36.2696 14.7304 45 25.5 45Z" fill="url(#paint0_linear_80_1143)"/>
<path fill-rule="evenodd" clip-rule="evenodd" d="M14.8268 25.2934C20.5114 22.8167 24.3021 21.1839 26.1987 20.395C31.6141 18.1426 32.7394 17.7513 33.4728 17.7384C33.6341 17.7356 33.9948 17.7756 34.2284 17.9651C34.4257 18.1252 34.48 18.3414 34.506 18.4932C34.5319 18.645 34.5643 18.9907 34.5386 19.2609C34.2451 22.3443 32.9753 29.8269 32.3293 33.2804C32.056 34.7417 31.5177 35.2316 30.9967 35.2796C29.8643 35.3838 29.0044 34.5312 27.9076 33.8123C26.1913 32.6872 25.2217 31.9869 23.5558 30.8891C21.6306 29.6204 22.8786 28.9231 23.9758 27.7835C24.263 27.4852 29.2524 22.947 29.3489 22.5353C29.361 22.4838 29.3722 22.2919 29.2582 22.1905C29.1442 22.0892 28.9759 22.1238 28.8545 22.1514C28.6823 22.1905 25.9406 24.0027 20.6292 27.588C19.851 28.1224 19.1461 28.3827 18.5145 28.3691C17.8183 28.3541 16.479 27.9754 15.4834 27.6518C14.2622 27.2548 13.2916 27.0449 13.3761 26.3708C13.4201 26.0196 13.9037 25.6605 14.8268 25.2934Z" fill="white"/>
</g>
<defs>
<linearGradient id="paint0_linear_80_1143" x1="1956" y1="6" x2="1956" y2="3877.08" gradientUnits="userSpaceOnUse">
<stop stop-color="#2AABEE"/>
<stop offset="1" stop-color="#229ED9"/>
</linearGradient>
<clipPath id="clip0_80_1143">
<rect width="39" height="39" fill="white" transform="translate(6 6)"/>
</clipPath>
</defs>
</svg>
