<svg width="52" height="52" viewBox="0 0 52 52" fill="none" xmlns="http://www.w3.org/2000/svg">
<rect x="1" y="1" width="50" height="50" rx="13" fill="#25D366"/>
<rect x="1" y="1" width="50" height="50" rx="13" stroke="#F0F4F8" stroke-width="2"/>
<path d="M14 38L15.687 31.837C14.646 30.033 14.099 27.988 14.1 25.891C14.103 19.335 19.438 14 25.993 14C29.174 14.001 32.16 15.24 34.406 17.488C36.651 19.736 37.887 22.724 37.886 25.902C37.883 32.459 32.548 37.794 25.993 37.794C24.003 37.793 22.042 37.294 20.305 36.346L14 38ZM20.597 34.193C22.273 35.188 23.873 35.784 25.989 35.785C31.437 35.785 35.875 31.351 35.878 25.9C35.88 20.438 31.463 16.01 25.997 16.008C20.545 16.008 16.11 20.442 16.108 25.892C16.107 28.117 16.759 29.783 17.854 31.526L16.855 35.174L20.597 34.193ZM31.984 28.729C31.91 28.605 31.712 28.531 31.414 28.382C31.117 28.233 29.656 27.514 29.383 27.415C29.111 27.316 28.913 27.266 28.714 27.564C28.516 27.861 27.946 28.531 27.773 28.729C27.6 28.927 27.426 28.952 27.129 28.803C26.832 28.654 25.874 28.341 24.739 27.328C23.856 26.54 23.259 25.567 23.086 25.269C22.913 24.972 23.068 24.811 23.216 24.663C23.35 24.53 23.513 24.316 23.662 24.142C23.813 23.97 23.862 23.846 23.962 23.647C24.061 23.449 24.012 23.275 23.937 23.126C23.862 22.978 23.268 21.515 23.021 20.92C22.779 20.341 22.534 20.419 22.352 20.41L21.782 20.4C21.584 20.4 21.262 20.474 20.99 20.772C20.718 21.07 19.95 21.788 19.95 23.251C19.95 24.714 21.015 26.127 21.163 26.325C21.312 26.523 23.258 29.525 26.239 30.812C26.948 31.118 27.502 31.301 27.933 31.438C28.645 31.664 29.293 31.632 29.805 31.556C30.376 31.471 31.563 30.837 31.811 30.143C32.059 29.448 32.059 28.853 31.984 28.729Z" fill="white"/>
</svg>
